<mxfile host="app.diagrams.net" modified="2023-06-03T10:07:23.479Z" agent="Mozilla/5.0 (Windows NT 10.0; Win64; x64) AppleWebKit/537.36 (KHTML, like Gecko) Chrome/113.0.0.0 Safari/537.36" etag="87QI9irPMJ7dNWpidquM" version="21.3.7" type="device">
  <diagram id="27HcMeHQ9Vk8HcgmzzvS" name="第 1 页">
    <mxGraphModel dx="911" dy="474" grid="1" gridSize="10" guides="1" tooltips="1" connect="1" arrows="1" fold="1" page="1" pageScale="1" pageWidth="827" pageHeight="1169" math="0" shadow="0">
      <root>
        <mxCell id="0" />
        <mxCell id="1" parent="0" />
        <mxCell id="vxSceUtqSG5UeswM3cWj-3" style="edgeStyle=orthogonalEdgeStyle;rounded=0;orthogonalLoop=1;jettySize=auto;html=1;exitX=1;exitY=0.5;exitDx=0;exitDy=0;fontFamily=Times New Roman;fontSize=24;" parent="1" source="vxSceUtqSG5UeswM3cWj-1" edge="1">
          <mxGeometry relative="1" as="geometry">
            <mxPoint x="680" y="190" as="targetPoint" />
          </mxGeometry>
        </mxCell>
        <mxCell id="vxSceUtqSG5UeswM3cWj-1" value="&lt;font style=&quot;font-size: 24px;&quot; face=&quot;Times New Roman&quot;&gt;execution&lt;/font&gt;" style="rounded=0;whiteSpace=wrap;html=1;" parent="1" vertex="1">
          <mxGeometry x="480" y="160" width="120" height="60" as="geometry" />
        </mxCell>
        <mxCell id="vxSceUtqSG5UeswM3cWj-4" value="y(k)" style="text;html=1;align=center;verticalAlign=middle;resizable=0;points=[];autosize=1;strokeColor=none;fillColor=none;fontSize=24;fontFamily=Times New Roman;" parent="1" vertex="1">
          <mxGeometry x="630" y="150" width="60" height="40" as="geometry" />
        </mxCell>
        <mxCell id="vxSceUtqSG5UeswM3cWj-7" style="edgeStyle=orthogonalEdgeStyle;rounded=0;orthogonalLoop=1;jettySize=auto;html=1;exitX=1;exitY=0.5;exitDx=0;exitDy=0;entryX=0;entryY=0.5;entryDx=0;entryDy=0;fontFamily=Times New Roman;fontSize=24;" parent="1" source="vxSceUtqSG5UeswM3cWj-6" target="vxSceUtqSG5UeswM3cWj-1" edge="1">
          <mxGeometry relative="1" as="geometry" />
        </mxCell>
        <mxCell id="vxSceUtqSG5UeswM3cWj-6" value="f&lt;sub&gt;1&lt;/sub&gt;(x(k))" style="rounded=0;whiteSpace=wrap;html=1;fontFamily=Times New Roman;fontSize=24;" parent="1" vertex="1">
          <mxGeometry x="230" y="160" width="120" height="60" as="geometry" />
        </mxCell>
        <mxCell id="vxSceUtqSG5UeswM3cWj-8" value="u(k)" style="text;html=1;align=center;verticalAlign=middle;resizable=0;points=[];autosize=1;strokeColor=none;fillColor=none;fontSize=24;fontFamily=Times New Roman;" parent="1" vertex="1">
          <mxGeometry x="384" y="150" width="60" height="40" as="geometry" />
        </mxCell>
        <mxCell id="vxSceUtqSG5UeswM3cWj-9" value="camera" style="rounded=0;whiteSpace=wrap;html=1;fontFamily=Times New Roman;fontSize=24;" parent="1" vertex="1">
          <mxGeometry x="400" y="290" width="120" height="60" as="geometry" />
        </mxCell>
        <mxCell id="vxSceUtqSG5UeswM3cWj-10" value="" style="endArrow=none;html=1;rounded=0;fontFamily=Times New Roman;fontSize=24;" parent="1" edge="1">
          <mxGeometry width="50" height="50" relative="1" as="geometry">
            <mxPoint x="640" y="320" as="sourcePoint" />
            <mxPoint x="640" y="190" as="targetPoint" />
          </mxGeometry>
        </mxCell>
        <mxCell id="vxSceUtqSG5UeswM3cWj-12" value="" style="endArrow=classic;html=1;rounded=0;fontFamily=Times New Roman;fontSize=24;entryX=1;entryY=0.5;entryDx=0;entryDy=0;" parent="1" target="vxSceUtqSG5UeswM3cWj-9" edge="1">
          <mxGeometry width="50" height="50" relative="1" as="geometry">
            <mxPoint x="640" y="320" as="sourcePoint" />
            <mxPoint x="660" y="280" as="targetPoint" />
          </mxGeometry>
        </mxCell>
        <mxCell id="vxSceUtqSG5UeswM3cWj-14" value="" style="endArrow=none;html=1;rounded=0;fontFamily=Times New Roman;fontSize=24;exitX=0;exitY=0.5;exitDx=0;exitDy=0;" parent="1" source="vxSceUtqSG5UeswM3cWj-9" edge="1">
          <mxGeometry width="50" height="50" relative="1" as="geometry">
            <mxPoint x="390" y="300" as="sourcePoint" />
            <mxPoint x="360" y="320" as="targetPoint" />
          </mxGeometry>
        </mxCell>
        <mxCell id="vxSceUtqSG5UeswM3cWj-16" value="" style="endArrow=none;html=1;rounded=0;fontFamily=Times New Roman;fontSize=24;" parent="1" edge="1">
          <mxGeometry width="50" height="50" relative="1" as="geometry">
            <mxPoint x="360" y="320" as="sourcePoint" />
            <mxPoint x="320" y="290" as="targetPoint" />
          </mxGeometry>
        </mxCell>
        <mxCell id="vxSceUtqSG5UeswM3cWj-19" value="T&lt;sub&gt;&lt;font style=&quot;font-size: 16px;&quot;&gt;1&lt;/font&gt;&lt;/sub&gt;" style="text;html=1;align=center;verticalAlign=middle;resizable=0;points=[];autosize=1;strokeColor=none;fillColor=none;fontSize=24;fontFamily=Times New Roman;" parent="1" vertex="1">
          <mxGeometry x="310" y="250" width="50" height="50" as="geometry" />
        </mxCell>
        <mxCell id="vxSceUtqSG5UeswM3cWj-21" value="" style="endArrow=none;html=1;rounded=0;fontFamily=Times New Roman;fontSize=16;" parent="1" edge="1">
          <mxGeometry width="50" height="50" relative="1" as="geometry">
            <mxPoint x="320" y="320" as="sourcePoint" />
            <mxPoint x="160" y="320" as="targetPoint" />
          </mxGeometry>
        </mxCell>
        <mxCell id="vxSceUtqSG5UeswM3cWj-26" style="edgeStyle=orthogonalEdgeStyle;rounded=0;orthogonalLoop=1;jettySize=auto;html=1;exitX=1;exitY=0.5;exitDx=0;exitDy=0;entryX=0;entryY=0.5;entryDx=0;entryDy=0;fontFamily=Times New Roman;fontSize=16;" parent="1" source="vxSceUtqSG5UeswM3cWj-24" target="vxSceUtqSG5UeswM3cWj-6" edge="1">
          <mxGeometry relative="1" as="geometry" />
        </mxCell>
        <mxCell id="vxSceUtqSG5UeswM3cWj-24" value="" style="ellipse;whiteSpace=wrap;html=1;aspect=fixed;fontFamily=Times New Roman;fontSize=16;" parent="1" vertex="1">
          <mxGeometry x="140" y="170" width="40" height="40" as="geometry" />
        </mxCell>
        <mxCell id="vxSceUtqSG5UeswM3cWj-25" value="" style="endArrow=classic;html=1;rounded=0;fontFamily=Times New Roman;fontSize=16;" parent="1" edge="1">
          <mxGeometry width="50" height="50" relative="1" as="geometry">
            <mxPoint x="160" y="320" as="sourcePoint" />
            <mxPoint x="160" y="300" as="targetPoint" />
          </mxGeometry>
        </mxCell>
        <mxCell id="vxSceUtqSG5UeswM3cWj-27" value="" style="endArrow=classic;html=1;rounded=0;fontFamily=Times New Roman;fontSize=16;entryX=0;entryY=0.5;entryDx=0;entryDy=0;" parent="1" target="vxSceUtqSG5UeswM3cWj-24" edge="1">
          <mxGeometry width="50" height="50" relative="1" as="geometry">
            <mxPoint x="80" y="190" as="sourcePoint" />
            <mxPoint x="130" y="160" as="targetPoint" />
          </mxGeometry>
        </mxCell>
        <mxCell id="vxSceUtqSG5UeswM3cWj-28" value="&lt;font style=&quot;font-size: 24px;&quot;&gt;X(k)&lt;/font&gt;" style="text;html=1;align=center;verticalAlign=middle;resizable=0;points=[];autosize=1;strokeColor=none;fillColor=none;fontSize=16;fontFamily=Times New Roman;" parent="1" vertex="1">
          <mxGeometry x="170" y="150" width="70" height="40" as="geometry" />
        </mxCell>
        <mxCell id="vxSceUtqSG5UeswM3cWj-29" value="-" style="text;html=1;align=center;verticalAlign=middle;resizable=0;points=[];autosize=1;strokeColor=none;fillColor=none;fontSize=24;fontFamily=Times New Roman;" parent="1" vertex="1">
          <mxGeometry x="130" y="200" width="30" height="40" as="geometry" />
        </mxCell>
        <mxCell id="ksiDpwKJH2VbIEC4Lifd-2" style="edgeStyle=orthogonalEdgeStyle;rounded=0;orthogonalLoop=1;jettySize=auto;html=1;exitX=0.5;exitY=0;exitDx=0;exitDy=0;entryX=0.5;entryY=1;entryDx=0;entryDy=0;" parent="1" source="ksiDpwKJH2VbIEC4Lifd-1" target="vxSceUtqSG5UeswM3cWj-24" edge="1">
          <mxGeometry relative="1" as="geometry" />
        </mxCell>
        <mxCell id="ksiDpwKJH2VbIEC4Lifd-1" value="data fusion" style="rounded=0;whiteSpace=wrap;html=1;fontFamily=Times New Roman;fontSize=24;" parent="1" vertex="1">
          <mxGeometry x="100" y="240" width="120" height="60" as="geometry" />
        </mxCell>
      </root>
    </mxGraphModel>
  </diagram>
</mxfile>
